<svg width="482" height="648" viewBox="0 0 482 648" fill="none" xmlns="http://www.w3.org/2000/svg">
<g style="mix-blend-mode:multiply">
<path d="M44.6602 632.419C44.6602 640.445 100.846 646.948 170.158 646.948C239.469 646.948 295.655 640.445 295.655 632.419C295.655 624.392 239.469 617.89 170.158 617.89C100.846 617.89 44.6602 624.392 44.6602 632.419Z" fill="#E6E6E6"/>
</g>
<g style="mix-blend-mode:multiply">
<path d="M274.486 636.191C274.486 642.226 320.82 647.114 377.986 647.114C435.152 647.114 481.501 642.226 481.501 636.191C481.501 630.156 435.152 625.298 377.986 625.298C320.82 625.298 274.486 630.171 274.486 636.191Z" fill="#E6E6E6"/>
</g>
<path d="M189.811 137.697L189.014 138.663L246.973 186.475L247.77 185.509L189.811 137.697Z" fill="white"/>
<path d="M189.288 134.774C190.601 136.193 190.918 138.018 190.013 138.848C189.107 139.678 187.312 139.21 185.999 137.792C184.687 136.374 184.37 134.548 185.29 133.718C186.211 132.888 187.991 133.356 189.288 134.774Z" fill="#66B0A9"/>
<path d="M445.58 149.908L466.793 411.056C466.793 411.056 480.04 464.089 316.975 422.99L356.413 202.276L445.58 149.908Z" fill="white"/>
<path d="M430.659 37.2494C438.675 37.2494 445.173 30.7512 445.173 22.7353C445.173 14.7194 438.675 8.22119 430.659 8.22119C422.643 8.22119 416.145 14.7194 416.145 22.7353C416.145 30.7512 422.643 37.2494 430.659 37.2494Z" fill="#29211C"/>
<path d="M412.99 30.2945C415.495 36.9782 419.93 41.4894 422.903 40.388C425.875 39.2866 426.237 32.9499 423.717 26.2661C421.198 19.5824 416.777 15.0713 413.82 16.1877C410.863 17.3042 410.486 23.6258 412.99 30.2945Z" fill="#66B0A9"/>
<path d="M448.265 617.558L447.451 594.927L430.055 600.494L429.617 611.297L431.035 625.147L448.265 617.558Z" fill="#FFBC82"/>
<path d="M448.204 615.174C448.204 615.174 454.495 629.839 452.308 639.012C452.308 639.012 425.905 640.521 405.612 643.81C385.32 647.099 374.185 635.95 387.945 630.714C401.705 625.479 429.586 611.297 429.586 611.297C429.586 611.297 431.442 624.951 448.204 615.174Z" fill="#071923"/>
<path d="M363.05 614.284L362.236 591.653L344.84 597.22L344.402 608.023L345.821 621.873L363.05 614.284Z" fill="#FFBC82"/>
<path d="M352.053 292.499C352.354 273.61 351.887 265.417 355.07 246.467C355.07 246.467 355.87 275.601 428.803 248.353L436.874 246.181C436.874 246.181 452.43 275.164 450.649 310.453C450.354 315.538 449.385 320.56 447.767 325.39L438.972 352.291L352.053 292.499Z" fill="#66B0A9"/>
<path d="M355.914 424.635C355.914 424.635 361.542 433.944 366.943 434.653" stroke="#29201D" stroke-width="0.5" stroke-miterlimit="10"/>
<path d="M388.956 304.735C387.743 297.026 386.086 289.394 383.992 281.877L352.641 271.603C352.369 275.857 333.57 350.193 331.518 381.318C330.869 391.08 328.501 400.932 329.089 410.829C329.647 419.882 330.93 423.624 334.641 431.047C338.76 439.284 339.288 452.938 340.314 462.247C341.627 474.091 341.385 488.982 341.823 500.66L384.068 498.125C386.995 472.084 387.085 453.844 379.768 428.859C377.52 421.194 384.189 411.297 386.105 403.723C388.162 395.517 389.719 387.194 390.767 378.799C392.502 365.13 395.112 347.704 392.2 334.065" fill="#15656A"/>
<path d="M384.05 498.125C382.708 510.09 382.376 515.22 378.664 526.626C370.522 552.194 365.18 578.57 362.732 605.292C362.732 605.292 351.22 607.796 344.506 604.643C344.506 604.643 343.118 550.781 342.168 512.715C342.062 508.732 341.941 504.704 341.775 500.645" fill="#15656A"/>
<path d="M332.574 426.702C332.574 426.702 336.753 436.75 341.989 438.274" stroke="#29201D" stroke-width="0.5" stroke-miterlimit="10"/>
<path d="M391.188 430.202C391.188 430.202 396.815 439.511 402.216 440.235" stroke="#29201D" stroke-width="0.5" stroke-miterlimit="10"/>
<path d="M454.389 484.728C453.393 458.536 450.285 455.956 439.301 432.359C435.937 425.102 439.301 416.834 440.025 409.049C440.855 400.63 442.651 387.353 442.454 378.874C442.122 365.099 444.552 318.917 439.618 305.866L420.381 279.327L375.119 287.505C375.24 289.013 375.376 290.658 375.511 292.242C378.127 323.322 380.742 354.407 383.357 385.497C384.172 395.244 383.357 405.413 385.364 415.024C387.28 423.925 392.153 432.133 395.276 440.672C398.399 449.212 401.19 458.264 403.604 467.317C406.622 478.828 409.202 490.506 411.404 502.018C412.174 506.001 412.913 509.969 413.592 513.877C420.215 551.384 427.412 567.392 429.902 605.427L448.142 604.356C448.142 604.356 445.23 562.594 452.216 520.696C454.159 508.811 454.887 496.76 454.389 484.728V484.728Z" fill="#15656A"/>
<path d="M391.188 430.202C391.188 430.202 396.815 439.511 402.216 440.235" stroke="#29201D" stroke-width="0.5" stroke-miterlimit="10"/>
<path d="M374.035 123.444C374.035 123.444 372.405 110.62 378.968 108.477C380.98 107.776 382.783 106.579 384.209 104.997C385.636 103.415 386.641 101.498 387.131 99.4248C388.881 89.6783 390.224 79.615 387.478 71.9808L401.72 39.6333C407.23 57.1309 411.58 74.9728 414.741 93.0429C416.25 101.854 423.793 104.464 426.811 106.244C433.374 110.092 415.721 150.979 382.952 130.897L382.544 130.641C375.951 126.537 379.662 133.009 374.035 123.444Z" fill="#FFBC82"/>
<path d="M386.072 102.517L386.253 101.974C386.658 101.178 386.953 100.331 387.128 99.4547C387.792 95.7583 388.396 92.0166 388.743 88.3805L403.317 77.8193C403.317 77.8193 400.315 98.4137 386.072 102.517Z" fill="#DE9066"/>
<path d="M375.738 115.101L378.665 108.583C378.665 108.583 380.702 106.093 387.823 104.947C399.216 105.258 410.616 104.754 421.936 103.438C432.271 106.124 440.614 122.493 441.64 125.707C453.001 161.449 438.2 172.825 433.825 195.004C433.825 195.004 430.808 228.196 436.933 246.301C437.371 247.614 391.203 280.625 364.513 263.289C356.97 258.386 355.008 246.346 355.008 246.346C359.882 223.368 359.293 211.721 354.857 196.558C346.605 168.495 351.704 168.208 357.769 154.313C358.871 151.778 363.487 141.685 365.132 138.109" fill="#1FA696"/>
<path d="M364.455 139.844C364.908 138.864 366.688 117.213 378.668 108.583L379.03 109.518L364.455 139.844Z" fill="white"/>
<path d="M360.033 53.4835C360.033 53.4835 363.624 99.6058 383.781 94.9438C408.705 89.1804 412.281 51.9446 410.5 31.9386C409.656 22.3883 400.422 20.5024 390.887 18.9483C376.252 16.5796 357.619 27.337 360.033 53.4835Z" fill="#FFBC82"/>
<path d="M358.404 30.8522C362.84 21.0454 379.436 10.3333 394.252 10.3786C409.067 10.4238 419.327 20.2005 421.575 33.8697C425.241 55.9879 409.007 55.49 409.007 55.49C409.007 55.49 373.703 62.4303 362.643 35.8763C357.318 44.7478 361.995 52.201 360.773 58.5075C360.773 58.4321 353.968 40.7194 358.404 30.8522Z" fill="#29211C"/>
<path d="M360.999 55.2939C360.999 55.2939 360.139 65.8552 358.917 69.7779C357.695 73.7006 359.369 76.3711 366.159 75.5413" fill="#FFBC82"/>
<path d="M380.642 71.7847C380.642 71.7847 376.478 78.7098 370.654 77.2463" stroke="#29201D" stroke-width="0.25" stroke-miterlimit="10"/>
<path d="M414.166 65.3877C411.691 69.9139 406.894 72.0111 403.439 70.1101C399.984 68.2091 399.214 63.0341 401.688 58.5229C404.163 54.0118 408.976 51.9146 412.416 53.8005C415.855 55.6865 416.64 60.8766 414.166 65.3877Z" fill="#FFBC82"/>
<path d="M410.471 59.0205C410.471 59.0205 407.937 59.5486 407.258 64.7839" stroke="#29201D" stroke-width="0.5" stroke-miterlimit="10"/>
<path d="M410.652 63.3505C410.419 62.8784 410.077 62.4682 409.655 62.1535C409.232 61.8388 408.742 61.6286 408.223 61.54" stroke="#29201D" stroke-width="0.5" stroke-miterlimit="10"/>
<path d="M369.147 60.0163C369.147 61.012 368.528 61.7815 367.909 61.7362C367.291 61.691 366.808 60.8763 366.868 59.8956C366.929 58.9149 367.487 58.1303 368.121 58.1605C368.754 58.1907 369.237 59.0356 369.147 60.0163Z" fill="#29201D"/>
<path d="M247.178 182.768C247.178 182.768 224.622 168.299 231.698 168.691C231.698 168.691 245.805 172.976 251.056 175.737C256.306 178.498 263.985 186.192 263.985 186.192L247.178 182.768Z" fill="#66B0A9"/>
<path d="M267.32 186.524L245.987 180.323L243.588 202.773L267.366 199.65L267.32 186.524Z" fill="#66B0A9"/>
<path d="M243.588 202.849C243.588 202.849 236.542 198.458 234.37 195.185C232.031 191.684 220.565 171.256 222.119 170.351C225.001 168.691 232.68 175.812 237.086 179.644C238.247 180.64 240.405 182.662 245.987 180.399L243.588 202.849Z" fill="#66B0A9"/>
<path d="M224.336 176.582L237.251 184.699" stroke="#29201D" stroke-width="0.5" stroke-miterlimit="10"/>
<path d="M229.135 185.861L237.75 190.176" stroke="#29201D" stroke-width="0.5" stroke-miterlimit="10"/>
<path d="M233.283 192.997L239.907 195.969" stroke="#29201D" stroke-width="0.5" stroke-miterlimit="10"/>
<path d="M244.434 180.746C244.434 180.746 247.345 179.675 249.262 178.785" stroke="#29201D" stroke-width="0.5" stroke-miterlimit="10"/>
<path d="M362.988 611.9C362.988 611.9 369.28 626.565 367.092 635.738C367.092 635.738 340.689 637.247 320.397 640.536C300.104 643.825 288.969 632.675 302.714 627.44C316.459 622.205 344.401 608.022 344.401 608.022C344.401 608.022 346.226 621.677 362.988 611.9Z" fill="#071923"/>
<path d="M333.027 612.971C333.027 612.971 336.829 613.198 338.051 618.176" stroke="white" stroke-width="0.5" stroke-miterlimit="10"/>
<path d="M326.689 615.099C326.689 615.099 330.492 615.31 331.714 620.304" stroke="white" stroke-width="0.5" stroke-miterlimit="10"/>
<path d="M338.639 610.753C338.639 610.753 342.441 610.965 343.663 615.944" stroke="white" stroke-width="0.5" stroke-miterlimit="10"/>
<path d="M367.439 53.9817C368.631 53.7921 369.852 54.0128 370.902 54.6076C371.951 55.2024 372.768 56.136 373.218 57.2556" stroke="#29201D" stroke-width="0.5" stroke-miterlimit="10"/>
<path d="M414.44 88.0938L386 104.494L392.503 119.943L423.175 103.905L414.44 88.0938Z" fill="#15656A"/>
<path d="M384.974 99.7871L387.117 105.234L379.603 115.719L376.525 109.7L384.974 99.7871Z" fill="#15656A"/>
<path d="M387.13 99.4551L384.973 99.787L386.074 102.548C386.074 102.548 386.512 102.246 387.13 99.4551Z" fill="#29201D"/>
<path d="M376.418 109.956L379.601 115.719L386.617 106.289L392.245 120.124L423.4 104.418" stroke="white" stroke-width="0.5" stroke-miterlimit="10"/>
<path d="M360.773 58.4321C360.773 58.4321 364.016 67.7713 368.829 70.7133C373.642 73.6554 380.341 69.6421 384.083 73.1273C384.083 73.1273 385.592 92.9522 375.03 93.1785C350.106 93.7217 360.773 58.4321 360.773 58.4321Z" fill="white"/>
<path d="M373.385 86.2234C380.174 86.0877 381.985 77.9706 382.437 72.1167C383.053 72.3388 383.617 72.6826 384.097 73.1276C384.097 73.1276 385.606 92.9524 375.044 93.1787C363.276 93.4352 359.504 85.635 358.75 77.4275C360.787 82.5723 365.087 86.4045 373.385 86.2234Z" fill="#E6E6E6"/>
<path d="M405.205 53.8608C405.205 53.8608 393.437 68.8427 378.455 74.1987" stroke="white" stroke-width="0.5" stroke-miterlimit="10"/>
<path d="M384.444 407.797L378.771 308.627L365.887 296.723" stroke="#29201D" stroke-width="0.25" stroke-miterlimit="10"/>
<path d="M417.924 615.929C417.924 615.929 421.726 616.14 422.948 621.134" stroke="white" stroke-width="0.5" stroke-miterlimit="10"/>
<path d="M411.678 618.041C411.678 618.041 415.48 618.252 416.702 623.246" stroke="white" stroke-width="0.5" stroke-miterlimit="10"/>
<path d="M423.627 613.695C423.627 613.695 427.429 613.907 428.651 618.9" stroke="white" stroke-width="0.5" stroke-miterlimit="10"/>
<g style="mix-blend-mode:multiply" opacity="0.35">
<path d="M466.792 411.056L466.445 406.847C447.767 360.755 393.935 287.822 369.146 226.25C364.62 215.025 357.076 194.31 366.129 177.412C372.164 165.976 380.567 166.187 394.931 151.265C412.145 133.417 422.692 109.715 418.98 106.637C414.906 103.272 391.43 122.282 375.453 140.991C365.557 152.61 357.307 165.535 350.936 179.403C351.807 185.263 353.139 191.044 354.919 196.694C355.477 198.61 355.975 200.466 356.428 202.291L316.974 423.02C322.365 424.378 327.56 425.631 332.559 426.777C333.132 428.105 333.811 429.493 334.581 431.047C334.732 431.349 334.868 431.666 335.003 431.967C338.73 440.28 339.258 453.271 340.254 462.248C341.566 474.091 341.325 488.983 341.763 500.66C341.928 504.704 342.049 508.732 342.155 512.73C343.105 550.796 344.493 604.658 344.493 604.658L344.358 608.038C344.358 608.038 316.431 622.28 302.716 627.44C292.638 631.288 295.957 638.303 306.458 640.461C306.807 635.82 308.735 631.438 311.92 628.044C314.275 625.929 317.082 624.381 320.127 623.518C336.98 617.256 345.414 614.133 349.125 610.935C357.574 603.647 351.735 588.635 349.125 565.672C346.787 545.138 349.125 519.173 353.651 467.242C354.315 459.864 354.949 453.437 355.16 448.066C365.978 450.133 375.86 451.777 384.822 453.06C384.11 447.322 383.047 441.633 381.639 436.026C385.954 436.599 390.042 437.067 393.935 437.444C394.372 438.515 394.795 439.586 395.187 440.658C395.579 441.729 395.987 442.936 396.379 444.067C396.967 445.727 397.526 447.387 398.084 449.061C398.461 450.193 398.823 451.34 399.185 452.486C400.724 457.375 402.168 462.313 403.515 467.302C406.533 478.814 409.113 490.492 411.316 502.003C412.085 505.986 412.824 509.954 413.503 513.862C420.127 551.369 427.323 567.377 429.813 605.413L429.571 611.357C429.571 611.357 401.645 625.539 387.9 630.775C380.567 633.566 380.356 638.032 384.732 641.094C387.417 639.51 390.948 636.085 398.099 631.921C417.26 620.741 429.783 623.246 433.977 613.605C435.878 609.26 434.958 605.035 434.354 602.154C417.954 525.102 409.762 486.569 410.697 474.333C411.089 469.203 411.964 462.097 410.954 456.017C428.002 457.299 440.525 456.771 449.638 455.051C447.676 449.846 444.946 444.49 441.159 436.418C471.454 429.749 466.792 411.056 466.792 411.056Z" fill="#6677B0"/>
</g>
<path d="M445.745 152.02C446.59 144.31 452.127 109.564 424.864 104.555C414.031 102.578 404.48 113.939 404.48 113.939L357.634 182.164L362.055 222.901L348.129 414.511C406.457 434.396 466.792 411.192 466.792 411.192L445.745 152.02Z" fill="white"/>
<path d="M428.788 120.728C431.73 125.42 445.581 149.907 427.279 161.148C411.966 170.547 354.241 216.835 341.281 219.279C326.646 222.071 279.724 210.001 262.117 200.948L265.21 184.352C265.21 184.352 324.866 190.508 335.02 196.995C335.02 197.071 411.136 92.7109 428.788 120.728Z" fill="white"/>
<path d="M334.914 196.905C334.914 196.905 333.616 198.579 327.129 199.424" stroke="#29201D" stroke-width="0.5" stroke-miterlimit="10"/>
<path d="M421.046 167.137L353.65 212.656" stroke="#29201D" stroke-width="0.5" stroke-miterlimit="10"/>
<path d="M274.321 185.317L270.896 204.75" stroke="#29201D" stroke-width="0.5" stroke-miterlimit="10"/>
<path d="M268.059 190.281C268.834 190.281 269.463 189.653 269.463 188.878C269.463 188.103 268.834 187.475 268.059 187.475C267.284 187.475 266.656 188.103 266.656 188.878C266.656 189.653 267.284 190.281 268.059 190.281Z" stroke="#29201D" stroke-width="0.5" stroke-miterlimit="10"/>
<g style="mix-blend-mode:multiply" opacity="0.35">
<path d="M398.732 345.757C379.948 346.768 375.377 327.17 374.291 316.05H373.974C373.974 316.05 372.586 354.584 398.732 353.181C421.59 351.943 423.717 332.586 422.872 321.029C422.042 332.013 417.139 344.762 398.732 345.757Z" fill="#6677B0"/>
</g>
<path d="M373.974 316.005L421.71 312.475C421.71 312.475 431.427 351.37 398.732 353.135C372.586 354.599 373.974 316.005 373.974 316.005Z" stroke="#29201D" stroke-width="0.5" stroke-miterlimit="10"/>
<path d="M71.8477 231.515C71.8477 231.515 74.1863 290.552 74.4427 304.252C74.6992 317.951 70.1881 320.848 70.9726 335.935C71.7572 351.023 81.8054 394.776 81.8054 394.776L96.1536 387.127C96.1536 387.127 99.4427 333.189 96.8476 311.69C94.3884 291.337 105.9 226.28 105.9 226.28L71.8477 231.515Z" fill="#F9CC89"/>
<path d="M80.5082 452.909H75.0918V632.163H80.5082V452.909Z" fill="#606060"/>
<path d="M250.241 452.909H244.824V632.163H250.241V452.909Z" fill="#606060"/>
<path d="M264.183 404.207H59.4016C55.152 404.207 51.707 407.652 51.707 411.901V453.014C51.707 457.264 55.152 460.709 59.4016 460.709H264.183C268.433 460.709 271.878 457.264 271.878 453.014V411.901C271.878 407.652 268.433 404.207 264.183 404.207Z" fill="white"/>
<path d="M265.722 428.482H51.707V444.112C51.707 453.27 55.8259 460.709 60.9104 460.709H262.69C267.759 460.709 271.878 453.27 271.878 444.112V424.122C270.249 426.807 268.151 428.482 265.722 428.482Z" fill="#57AB7E"/>
<path d="M212.327 228.257C212.327 228.257 218.362 250.888 218.815 288.229C219.207 326.144 218.649 350.404 218.649 350.404L202.279 356.334L187.297 225.48L212.327 228.257Z" fill="#F9CC89"/>
<path d="M210.141 610.678L211.136 582.842L232.53 589.692L233.074 602.968L231.323 620.017L210.141 610.678Z" fill="#FFBC82"/>
<path d="M210.2 607.751C210.2 607.751 202.475 625.78 205.161 637.051C205.161 637.051 237.629 638.922 262.584 642.95C287.538 646.978 301.223 633.294 284.325 626.852C267.427 620.409 233.027 602.968 233.027 602.968C233.027 602.968 230.825 619.761 210.2 607.751Z" fill="#071923"/>
<path d="M247.451 608.702C247.451 608.702 242.774 608.973 241.266 615.114" stroke="white" stroke-width="0.5" stroke-miterlimit="10"/>
<path d="M255.129 611.267C255.129 611.267 250.452 611.538 248.943 617.679" stroke="white" stroke-width="0.5" stroke-miterlimit="10"/>
<path d="M240.436 605.925C240.436 605.925 235.759 606.182 234.25 612.322" stroke="white" stroke-width="0.5" stroke-miterlimit="10"/>
<path d="M162.07 612.835L163.066 585.014L184.46 591.849L185.003 605.141L183.253 622.175L162.07 612.835Z" fill="#FFBC82"/>
<path d="M162.146 609.908C162.146 609.908 154.406 627.938 157.092 639.208C157.092 639.208 189.56 641.094 214.514 645.122C239.469 649.151 253.168 635.451 236.255 629.024C219.342 622.597 184.958 605.141 184.958 605.141C184.958 605.141 182.755 621.933 162.146 609.908Z" fill="#071923"/>
<path d="M199.384 610.829C199.384 610.829 194.707 611.086 193.213 617.226" stroke="white" stroke-width="0.5" stroke-miterlimit="10"/>
<path d="M207.061 613.439C207.061 613.439 202.384 613.695 200.891 619.836" stroke="white" stroke-width="0.5" stroke-miterlimit="10"/>
<path d="M192.368 608.083C192.368 608.083 187.706 608.339 186.197 614.48" stroke="white" stroke-width="0.5" stroke-miterlimit="10"/>
<path d="M267.984 428.452C269.493 418.253 275.754 404.387 272.314 394.671C270.519 389.587 256.503 375.661 253.696 374.333L184.852 324.967C184.852 324.967 135.712 281.123 119.976 306.138C108.329 304.493 98.5973 315.839 100.498 348.383C100.649 350.902 95.3083 410.075 146.832 425.102C146.59 453.271 147.496 491.019 152.46 525.042C161.512 587.383 158.947 606.876 158.947 606.876L195.157 601.942C195.157 601.942 205.13 493.72 204.526 424.529C208.288 425.253 212.216 425.882 216.31 426.415C209.731 449.046 213.066 482.827 211.602 512.051C208.359 576.927 202.867 601.761 202.867 601.761L236.436 605.382C236.436 605.382 260.244 482.812 267.984 428.452Z" fill="#15656A"/>
<g style="mix-blend-mode:multiply" opacity="0.35">
<path d="M152.385 525.011C161.438 587.353 158.873 606.846 158.873 606.846L161.377 606.499C160.985 593.011 164.561 573.216 161.453 532.48C157.696 483.31 149.624 474.891 157.409 449.801C164.078 428.256 175.001 418.388 169.479 405.851C162.75 390.386 141.417 394.641 130.75 375.208C123.508 362.037 129.694 353.467 121.501 344.566C116.145 338.742 107.847 336.252 100.243 335.664C100.06 339.893 100.101 344.128 100.364 348.353C100.515 350.872 95.1737 410.045 146.697 425.072C146.516 453.301 147.452 491.019 152.385 525.011Z" fill="#6677B0"/>
</g>
<path d="M204.42 426.43L203.229 480.745C204.028 461.84 204.526 443.071 204.42 426.43Z" fill="#66B0A9"/>
<g style="mix-blend-mode:multiply" opacity="0.35">
<path d="M184.853 324.967C179.277 320.127 173.39 315.657 167.231 311.585C153.885 309.506 140.242 310.502 127.339 314.497C117.706 317.738 108.736 322.69 100.861 329.116C100.122 335.501 99.9751 341.941 100.423 348.353C100.423 348.579 100.423 349.334 100.423 350.48C105.49 351.577 110.612 352.403 115.767 352.955C146.35 356.47 166.778 358.522 184.868 345.728C188.957 342.831 194.871 338.637 197.345 333.929L184.853 324.967Z" fill="#6677B0"/>
</g>
<path d="M194.554 178.89C194.554 178.89 212.161 180.957 218.061 233.386C218.061 233.386 204.301 239.934 183.359 234.684L194.554 178.89Z" fill="#1FA696"/>
<g style="mix-blend-mode:multiply" opacity="0.35">
<path d="M199.909 335.755L205.25 339.587C206.873 336.712 207.967 333.569 208.479 330.308C212.371 311.901 209.022 300.54 208.087 277.11C207.438 260.86 207.121 252.728 207.317 248.594C207.86 237.46 209.203 230.897 205.009 226.612C201.508 223.036 197.284 208.417 192.667 210.016C190.631 210.793 188.85 212.119 187.522 213.848L183.328 234.654C185.108 235.106 186.798 235.438 188.473 235.725L199.909 335.755Z" fill="#6677B0"/>
</g>
<path d="M91.7329 180.912C91.7329 180.912 68.0908 189.271 67.3516 252.381C67.3516 252.381 70.369 265.658 110.109 256.802C110.109 256.802 129.678 207.255 91.7329 180.912Z" fill="#1FA696"/>
<path d="M190.752 178.045C184.249 177.952 177.776 177.132 171.455 175.601C169.125 174.913 167.023 173.612 165.367 171.834C163.711 170.056 162.562 167.866 162.041 165.493C159.476 153.664 157.394 141.353 160.411 131.968L126.706 105.218C128.081 123.077 128.51 140.996 127.988 158.899C127.762 169.838 111.588 174.379 107.952 176.703C100.092 181.697 108.827 180.746 93.1816 183.16C93.1816 183.16 129.392 229.795 168.619 203.815C168.791 203.708 168.957 203.592 169.117 203.468C176.902 198.142 184.295 189.98 190.752 178.045Z" fill="#F9BE89"/>
<path d="M137.041 142.816C137.041 142.816 139.606 160.725 161.075 161.012L160.004 154.298L137.041 142.816Z" fill="#C4966C"/>
<path d="M167.577 102.744C167.577 102.744 185.817 146.935 165.344 154.298C140.012 163.351 120.489 131.169 110.652 112.476C105.96 103.559 112.161 95.3666 120.534 89.8446C143.98 74.5157 149.517 83.1005 167.577 102.744Z" fill="#F9CC89"/>
<path d="M156.111 81.803C146.591 75.6624 133.299 74.3951 120.218 82.8742C107.137 91.3534 99.5032 106.35 105.282 119.657C122.572 159.383 128.758 144.944 128.758 144.944C128.758 144.944 118.71 135.891 127.249 130.49C137.358 124.063 127.913 116.595 131.368 109.866C131.368 109.866 156.096 97.2676 150.725 86.6461C160.17 98.6255 163.157 96.1361 168.393 104.887C168.362 104.887 165.632 87.9587 156.111 81.803Z" fill="#856042"/>
<path d="M198.101 217.635C197.966 213.32 194.586 178.89 194.556 178.89C191.745 177.979 188.819 177.471 185.866 177.382C180.998 176.945 176.168 176.163 171.412 175.043C168.138 174.213 173.977 186.69 149.912 189.844C126.753 191.352 115.075 173.248 115.075 173.248C105.57 178.242 90.1659 178.815 90.5581 182.919C99.3541 276.023 99.4295 316.578 99.7766 333.446C100.214 355.097 130.298 354.221 194.601 339.074C213.566 334.563 199.142 250.933 198.101 217.635Z" fill="#1FA696"/>
<g style="mix-blend-mode:multiply" opacity="0.35">
<path d="M145.943 348.578C140.331 347.764 132.229 348.473 123.915 342.257C112.283 333.551 109.718 318.328 108.828 313.349C106.308 298.398 112.358 296.24 111.136 278.075C110.231 264.768 106.218 254.629 102.461 245.124C98.9457 236.237 96.4262 229.795 94.2988 225.797C99.3682 289.013 99.4738 319.339 99.7605 333.416C100.077 348.563 114.954 352.682 145.943 348.578Z" fill="#6677B0"/>
</g>
<path d="M97.1795 258.718L93.9961 224.5" stroke="#120E0C" stroke-width="0.5" stroke-miterlimit="10"/>
<path d="M197.875 210.046L198.705 237.068" stroke="#120E0C" stroke-width="0.5" stroke-miterlimit="10"/>
<path d="M158.947 112.43C158.947 112.43 162.251 119.144 164.982 121.482C167.713 123.821 167.758 126.536 162.387 129.147" stroke="#120E0C" stroke-width="0.5" stroke-miterlimit="10"/>
<path d="M141.959 120.728C141.959 120.728 143.769 116.112 148.22 117.258" stroke="#856042" stroke-width="0.5" stroke-miterlimit="10"/>
<path d="M152.914 121.196C152.914 121.196 151.103 125.828 146.652 124.681" stroke="#120E0C" stroke-width="0.5" stroke-miterlimit="10"/>
<path d="M171.228 112.43C171.228 112.43 169.418 117.046 164.967 115.9" stroke="#120E0C" stroke-width="0.5" stroke-miterlimit="10"/>
<path d="M161.936 111.48C161.936 111.48 163.746 106.863 168.212 108.01" stroke="#856042" stroke-width="0.5" stroke-miterlimit="10"/>
<path d="M126.466 144.098C131.233 146.663 136.68 145.803 138.641 142.167C140.603 138.531 138.34 133.492 133.587 130.927C128.834 128.362 123.373 129.222 121.411 132.858C119.45 136.494 121.713 141.533 126.466 144.098Z" fill="#F9BE89"/>
<path d="M124.232 135.348C124.232 135.348 126.888 133.628 131.354 139.134" stroke="#120E0C" stroke-width="0.5" stroke-miterlimit="10"/>
<path d="M126.901 139.919C126.834 139.277 126.919 138.628 127.15 138.025C127.381 137.422 127.75 136.882 128.229 136.449" stroke="#120E0C" stroke-width="0.5" stroke-miterlimit="10"/>
<path d="M177.927 210.665C177.927 210.665 209.973 298.172 175.332 318.902" stroke="#29201D" stroke-width="0.5" stroke-miterlimit="10"/>
<path d="M116.008 193.344C116.008 193.344 139.182 239.451 158.434 231.44" stroke="#29201D" stroke-width="0.5" stroke-miterlimit="10"/>
<path d="M125.107 229.705C125.107 229.705 141.553 304.176 169.268 298.986" stroke="#29201D" stroke-width="0.5" stroke-miterlimit="10"/>
<path d="M167.971 358.732C167.971 358.732 204.497 379.96 204.497 393.811V424.981" stroke="#29201D" stroke-width="0.5" stroke-miterlimit="10"/>
<path d="M146.758 425.072C146.758 425.072 149.775 428.889 161.257 427.366" stroke="#29201D" stroke-width="0.5" stroke-miterlimit="10"/>
<path d="M215.164 426.279C215.164 426.279 219.117 430.986 230.749 428.451" stroke="#29201D" stroke-width="0.5" stroke-miterlimit="10"/>
<g style="mix-blend-mode:multiply" opacity="0.35">
<path d="M263.217 637.126C234.883 631.348 213.429 614.571 213.429 614.571C213.429 614.571 214.575 577.576 216.31 559.652C218.045 541.728 240.028 418.57 236.558 416.322C233.088 414.074 197.33 369.445 186.105 352.864L184.929 354.161C182.306 357.089 180.313 360.525 179.075 364.255L178.592 365.764C178.592 365.764 202.249 381.077 203.984 390.718C205.719 400.359 204.421 424.197 204.421 424.197V424.589C208.153 425.314 212.061 425.942 216.144 426.475C209.566 449.107 212.901 482.887 211.437 512.112C208.193 576.988 202.702 601.822 202.702 601.822L210.381 602.651L210.2 607.857C209.077 610.584 208.1 613.369 207.273 616.2C217.291 620.998 228.577 626.203 236.256 629.13C243.936 632.057 245.308 636.674 241.929 640.31C248.839 641.079 255.975 642 262.584 643.056C275.348 645.123 285.215 642.543 289.439 638.665C283.238 639.435 274.895 639.51 263.217 637.126Z" fill="#6677B0"/>
</g>
<path d="M80.5828 388.651L70.2177 402.23C70.2177 402.23 59.9885 407.601 60.3656 412.067C60.9691 419.052 61.0144 421.406 62.9305 421.406C64.8466 421.406 65.4199 411.237 65.4199 411.237L75.3928 402.999L96.1531 400.842L96.2587 386.343L80.5828 388.651Z" fill="#F9BE89"/>
<path d="M179.014 365.447C179.014 365.447 178.139 359.819 186.558 352.683" stroke="#29201D" stroke-width="0.5" stroke-miterlimit="10"/>
<path d="M76.9619 396.587C75.3626 396.904 62.2969 410.166 62.2969 410.166C62.2969 410.166 63.3077 425.706 67.155 425.389C71.0023 425.072 68.4224 411.448 68.4224 411.448L85.0186 397.507L76.9619 396.587Z" fill="#F9BE89"/>
<path d="M86.3932 396.104C84.8845 396.632 74.1875 408.793 74.1875 408.793C74.1875 408.793 75.6963 427.863 79.4983 427.048C83.3003 426.234 81.5954 409.547 81.5954 409.547L93.2429 401.234L86.3932 396.104Z" fill="#F9BE89"/>
<path d="M82.8617 398.352C81.2624 398.684 67.4121 410.709 67.4121 410.709C67.4121 410.709 68.423 428.542 72.2703 428.225C76.1176 427.908 75.9667 410.709 75.9667 410.709L90.8731 399.318L82.8617 398.352Z" fill="#F9BE89"/>
<path d="M75.5273 419.143L74.7578 408.431L81.5773 401.822" stroke="#29201D" stroke-width="0.5" stroke-miterlimit="10"/>
<path d="M74.0048 401.928L67.834 408.748L68.9203 422.719" stroke="#29201D" stroke-width="0.5" stroke-miterlimit="10"/>
<path d="M67.5173 404.855L62.9609 410.589L63.7304 420.652" stroke="#29201D" stroke-width="0.5" stroke-miterlimit="10"/>
<path d="M95.8818 392.679C95.8818 392.679 95.8817 398.443 100.091 399.982C101.955 400.609 103.774 401.36 105.538 402.23C105.538 402.23 108.555 404.251 103.184 405.126C97.8129 406.001 86.5879 404.372 86.5879 404.372L95.8818 392.679Z" fill="#F9BE89"/>
<path d="M93.3932 308.838C93.3932 308.838 90.1343 310.468 88.867 315.975C88.867 315.975 87.4639 308.084 85.5176 306.56" stroke="#120E0C" stroke-width="0.5" stroke-linejoin="round"/>
<g style="mix-blend-mode:multiply" opacity="0.35">
<path d="M77.416 326.069C78.2307 316.02 80.4335 317.288 82.8173 304.479C88.1582 275.526 78.2005 261.691 76.6465 235.861C75.2736 213.003 81.4142 196.286 85.699 185.333C78.6381 192.409 67.8807 210.092 67.3828 252.382C67.3828 252.382 68.0467 255.324 72.8897 257.511C73.5536 275.164 74.3985 296.603 74.4739 304.177C74.7304 317.876 70.2193 320.773 71.0038 335.86C71.6224 347.417 77.6725 375.918 80.4485 388.546C80.7605 388.194 81.0478 387.821 81.3085 387.429C89.6821 374.635 75.1529 354.162 77.416 326.069Z" fill="#6677B0"/>
</g>
<g style="mix-blend-mode:multiply" opacity="0.35">
<path d="M132.151 126.718C127.142 122.192 125.694 117.665 122.903 107.889C120.489 99.5002 123.144 91.7 124.411 87.8527C125.533 84.6047 127.054 81.5083 128.937 78.6343C125.871 79.6817 122.947 81.1058 120.232 82.8739C107.166 91.3681 99.517 106.35 105.295 119.657C119.478 152.231 126.176 148.323 128.138 145.954C128.138 149.978 128.093 154.293 128.002 158.899C127.866 166.021 120.941 170.441 115.132 173.278C111.367 175.073 107.416 176.45 103.349 177.382C113.76 179.962 126.433 178.287 135.304 170.396C141.339 164.965 156.427 162.113 159.746 155.535C148.476 150.194 139.106 138.064 132.151 126.718Z" fill="#6677B0"/>
</g>
<g style="mix-blend-mode:multiply" opacity="0.35">
<path d="M423.657 161.57L354.798 208.522L353.289 216.624C361.682 212.511 369.828 207.911 377.685 202.849C393.832 192.88 408.439 180.61 421.047 166.428L423.657 161.57Z" fill="#6677B0"/>
</g>
</svg>
